<?xml version="1.0" standalone="no"?><!DOCTYPE svg PUBLIC "-//W3C//DTD SVG 1.1//EN" "http://www.w3.org/Graphics/SVG/1.1/DTD/svg11.dtd"><svg t="1583310015925" class="icon" viewBox="0 0 1024 1024" version="1.1" xmlns="http://www.w3.org/2000/svg" p-id="10143" xmlns:xlink="http://www.w3.org/1999/xlink" width="200" height="200"><defs><style type="text/css"></style></defs><path d="M695.466667 1024H328.533333C183.466667 1024 64 904.533333 64 759.466667V349.866667C64 204.8 183.466667 85.333333 328.533333 85.333333h366.933334C840.533333 85.333333 960 204.8 960 349.866667v409.6C960 904.533333 840.533333 1024 695.466667 1024zM328.533333 170.666667C230.4 170.666667 149.333333 251.733333 149.333333 349.866667v409.6c0 98.133333 81.066667 179.2 179.2 179.2h366.933334c98.133333 0 179.2-81.066667 179.2-179.2V349.866667c0-98.133333-81.066667-179.2-179.2-179.2H328.533333z" p-id="10144" fill="#13227a"></path><path d="M727.466667 298.666667H296.533333c-23.466667 0-40.533333-19.2-40.533333-40.533334v-4.266666c0-23.466667 19.2-40.533333 40.533333-40.533334h430.933334c23.466667 0 40.533333 19.2 40.533333 40.533334v4.266666c0 21.333333-19.2 40.533333-40.533333 40.533334z" p-id="10145" fill="#13227a"></path><path d="M571.733333 285.866667h-117.333333c-55.466667 0-100.266667-44.8-100.266667-100.266667v-85.333333c0-55.466667 44.8-100.266667 100.266667-100.266667h117.333333c55.466667 0 100.266667 44.8 100.266667 100.266667v85.333333c0 55.466667-44.8 100.266667-100.266667 100.266667zM477.866667 693.333333h-66.133334c-12.8-2.133333-21.333333-8.533333-21.333333-19.2 2.133333-12.8 8.533333-19.2 21.333333-19.2h66.133334v-29.866666h-66.133334c-12.8-2.133333-21.333333-8.533333-21.333333-19.2 2.133333-12.8 8.533333-19.2 21.333333-19.2H448l-57.6-81.066667c-4.266667-6.4-6.4-12.8-6.4-19.2 2.133333-21.333333 12.8-32 34.133333-34.133333 12.8 2.133333 21.333333 6.4 27.733334 14.933333l66.133333 96 66.133333-96c6.4-8.533333 14.933333-12.8 27.733334-14.933333 21.333333 2.133333 32 12.8 34.133333 34.133333 0 6.4-2.133333 12.8-6.4 19.2L576 584.533333h38.4c12.8 2.133333 21.333333 8.533333 21.333333 19.2-2.133333 12.8-8.533333 19.2-21.333333 19.2h-66.133333v29.866667h66.133333c12.8 2.133333 21.333333 8.533333 21.333333 19.2-2.133333 12.8-8.533333 19.2-21.333333 19.2h-66.133333V746.666667c-2.133333 21.333333-12.8 29.866667-34.133334 29.866666s-34.133333-10.666667-34.133333-29.866666v-53.333334z" p-id="10146" fill="#13227a"></path></svg>