<?xml version="1.0" standalone="no"?><!DOCTYPE svg PUBLIC "-//W3C//DTD SVG 1.1//EN" "http://www.w3.org/Graphics/SVG/1.1/DTD/svg11.dtd"><svg t="1585149234963" class="icon" viewBox="0 0 1024 1024" version="1.1" xmlns="http://www.w3.org/2000/svg" p-id="3059" xmlns:xlink="http://www.w3.org/1999/xlink" width="200" height="200"><defs><style type="text/css"></style></defs><path d="M917.5 147.5H107.3c-22.1 0-40 17.9-40 39.9v672.8c0 21.2 17.2 38.4 38.4 38.4h811.8c22.1 0 40-17.9 40-40V187.5c-0.1-22.1-17.9-40-40-40zM689.8 320.1c38.2 0 69.5 31.3 69.5 69.5s-31.3 69.5-69.5 69.5-69.5-31.3-69.5-69.5 31.2-69.5 69.5-69.5zM791.2 782c0 21.2-17.2 38.4-38.4 38.4H176c-21.2 0-38.4-17.2-38.4-38.4v-95.4c0-11.4 5.1-22.3 13.9-29.5l203.9-168.8c13.8-11.4 33.5-11.8 47.7-0.9L774 734c10.7 7.1 17.1 19.1 17.1 31.9V782z" p-id="3060" fill="#1296db"></path></svg>